<?xml version="1.0" encoding="UTF-8" standalone="no"?>
<!DOCTYPE svg PUBLIC "-//W3C//DTD SVG 1.1//EN" "http://www.w3.org/Graphics/SVG/1.1/DTD/svg11.dtd">
<svg xmlns="http://www.w3.org/2000/svg" version="1.1" viewBox="0.00 0.00 419.00 400.00">
<g stroke-width="2.00" fill="none" stroke-linecap="butt">
<path stroke="#216091" vector-effect="non-scaling-stroke" d="
  M 26.62 0.00
  Q 8.49 2.83 1.92 18.96
  Q 0.95 21.33 0.86 26.50"
/>
<path stroke="#2177b4" vector-effect="non-scaling-stroke" d="
  M 0.86 26.50
  L 0.00 27.69"
/>
<path stroke="#18426d" vector-effect="non-scaling-stroke" d="
  M 73.82 0.00
  L 66.17 0.20
  Q 65.87 0.21 65.93 0.51
  Q 65.98 0.76 66.25 0.76
  Q 160.79 0.75 258.29 0.75
  A 0.15 0.15 0.0 0 0 258.44 0.60
  Q 258.44 0.45 258.44 0.31
  A 0.12 0.11 89.7 0 0 258.34 0.20
  L 254.56 0.00"
/>
<path stroke="#216091" vector-effect="non-scaling-stroke" d="
  M 395.06 0.00
  Q 394.80 0.29 394.16 0.26
  Q 393.77 0.25 393.96 0.58
  Q 394.13 0.87 394.32 0.88
  Q 403.52 1.56 409.94 7.31
  Q 417.47 14.05 419.00 25.91"
/>
<path stroke="#216091" vector-effect="non-scaling-stroke" d="
  M 419.00 374.85
  Q 413.22 398.20 391.91 399.31"
/>
<path stroke="#184a78" vector-effect="non-scaling-stroke" d="
  M 391.91 399.31
  L 26.21 399.03"
/>
<path stroke="#216091" vector-effect="non-scaling-stroke" d="
  M 26.21 399.03
  Q 4.63 396.63 0.86 375.02"
/>
<path stroke="#184a78" vector-effect="non-scaling-stroke" d="
  M 0.86 375.02
  L 0.86 26.50"
/>
<path stroke="#578baa" vector-effect="non-scaling-stroke" d="
  M 32.20 139.72
  L 32.25 164.69"
/>
<path stroke="#256897" vector-effect="non-scaling-stroke" d="
  M 32.25 164.69
  L 31.96 192.80"
/>
<path stroke="#18426d" vector-effect="non-scaling-stroke" d="
  M 31.96 192.80
  L 32.29 221.41"
/>
<path stroke="#7d93a9" vector-effect="non-scaling-stroke" d="
  M 32.29 221.41
  L 32.19 243.84"
/>
<path stroke="#256897" vector-effect="non-scaling-stroke" d="
  M 32.19 243.84
  L 32.03 256.84"
/>
<path stroke="#1a517f" vector-effect="non-scaling-stroke" d="
  M 32.03 256.84
  L 32.14 277.36"
/>
<path stroke="#18426d" vector-effect="non-scaling-stroke" d="
  M 32.14 277.36
  L 32.50 299.80"
/>
<path stroke="#578baa" vector-effect="non-scaling-stroke" d="
  M 32.50 299.80
  L 32.22 321.86"
/>
<path stroke="#216091" vector-effect="non-scaling-stroke" d="
  M 32.22 321.86
  L 32.21 335.34"
/>
<path stroke="#184a78" vector-effect="non-scaling-stroke" d="
  M 32.21 335.34
  L 32.29 349.01"
/>
<path stroke="#18426d" vector-effect="non-scaling-stroke" d="
  M 32.29 349.01
  L 32.03 366.65
  Q 32.02 367.25 32.63 367.25
  L 168.26 367.26"
/>
<path stroke="#184a78" vector-effect="non-scaling-stroke" d="
  M 168.26 367.26
  Q 208.08 368.26 247.94 366.85"
/>
<path stroke="#18426d" vector-effect="non-scaling-stroke" d="
  M 247.94 366.85
  L 387.01 367.66
  A 1.03 1.02 -0.5 0 0 388.04 366.62
  L 387.76 351.03"
/>
<path stroke="#184a78" vector-effect="non-scaling-stroke" d="
  M 387.76 351.03
  L 387.74 336.86"
/>
<path stroke="#216091" vector-effect="non-scaling-stroke" d="
  M 387.74 336.86
  L 387.73 323.48"
/>
<path stroke="#578baa" vector-effect="non-scaling-stroke" d="
  M 387.73 323.48
  L 387.61 303.31"
/>
<path stroke="#18426d" vector-effect="non-scaling-stroke" d="
  M 387.61 303.31
  L 387.76 278.26"
/>
<path stroke="#1a517f" vector-effect="non-scaling-stroke" d="
  M 387.76 278.26
  L 387.84 259.07"
/>
<path stroke="#256897" vector-effect="non-scaling-stroke" d="
  M 387.84 259.07
  L 387.76 244.71"
/>
<path stroke="#7d93a9" vector-effect="non-scaling-stroke" d="
  M 387.76 244.71
  L 387.78 224.87"
/>
<path stroke="#18426d" vector-effect="non-scaling-stroke" d="
  M 387.78 224.87
  L 387.75 192.84"
/>
<path stroke="#256897" vector-effect="non-scaling-stroke" d="
  M 387.75 192.84
  L 387.75 162.92"
/>
<path stroke="#578baa" vector-effect="non-scaling-stroke" d="
  M 387.75 162.92
  L 387.74 137.12"
/>
<path stroke="#7d93a9" vector-effect="non-scaling-stroke" d="
  M 387.74 137.12
  L 387.74 32.15
  Q 387.74 31.58 387.17 31.57
  C 375.10 31.27 363.12 31.35 351.25 31.33
  Q 192.04 31.06 32.80 31.46
  Q 32.27 31.46 32.27 31.99
  L 32.20 139.72"
/>
<path stroke="#bbecff" vector-effect="non-scaling-stroke" d="
  M 387.74 137.12
  Q 367.66 140.83 347.51 141.76"
/>
<path stroke="#7ca3c2" vector-effect="non-scaling-stroke" d="
  M 347.51 141.76
  L 347.06 131.22
  Q 347.04 130.67 346.48 130.68
  L 331.02 131.05
  Q 330.48 131.06 330.50 131.60
  L 330.81 142.19"
/>
<path stroke="#bbecff" vector-effect="non-scaling-stroke" d="
  M 330.81 142.19
  Q 303.47 143.82 277.03 137.58
  Q 265.92 134.95 241.67 129.10
  Q 209.29 121.28 177.41 129.55
  C 162.41 133.44 146.43 138.45 132.12 140.83
  Q 113.33 143.97 94.26 143.28"
/>
<path stroke="#7ca3c2" vector-effect="non-scaling-stroke" d="
  M 94.26 143.28
  L 95.56 125.49
  A 0.88 0.88 0.0 0 0 94.75 124.55
  L 72.51 122.92
  Q 71.39 122.84 71.31 123.95
  L 69.95 143.78"
/>
<path stroke="#bbecff" vector-effect="non-scaling-stroke" d="
  M 69.95 143.78
  Q 50.90 143.57 32.20 139.72"
/>
<path stroke="#569bc3" vector-effect="non-scaling-stroke" d="
  M 94.26 143.28
  L 93.66 147.01
  A 0.64 0.63 -83.6 0 1 92.99 147.55
  L 70.83 146.03
  Q 70.39 146.00 70.19 145.61
  Q 69.82 144.90 69.95 143.78"
/>
<path stroke="#569bc3" vector-effect="non-scaling-stroke" d="
  M 330.81 142.19
  L 331.35 145.74
  A 0.58 0.57 -4.5 0 0 331.93 146.23
  L 346.84 145.92
  Q 347.46 145.91 347.46 145.29
  L 347.51 141.76"
/>
<path stroke="#63c1ed" vector-effect="non-scaling-stroke" d="
  M 387.75 162.92
  Q 330.23 176.03 273.01 161.97
  Q 255.05 157.56 237.17 152.81
  C 218.13 147.76 203.12 146.24 184.51 151.79
  Q 161.60 158.62 151.50 161.29
  Q 92.44 176.91 32.25 164.69"
/>
<path stroke="#2478b0" vector-effect="non-scaling-stroke" d="
  M 387.75 192.84
  Q 375.57 193.96 355.81 195.06
  Q 298.83 198.26 244.71 183.33"
/>
<path stroke="#2d96d4" vector-effect="non-scaling-stroke" d="
  M 244.71 183.33
  Q 247.24 178.74 243.80 175.20
  C 236.91 168.10 212.66 158.01 202.99 159.94
  C 193.43 161.85 170.60 168.45 167.34 177.56
  C 166.72 179.30 167.16 181.35 166.80 183.34"
/>
<path stroke="#2478b0" vector-effect="non-scaling-stroke" d="
  M 166.80 183.34
  C 123.16 196.89 77.26 198.25 31.96 192.80"
/>
<path stroke="#2070aa" vector-effect="non-scaling-stroke" d="
  M 244.71 183.33
  Q 227.79 178.06 211.21 171.73
  C 207.61 170.35 202.22 170.82 198.16 172.35
  Q 182.59 178.21 166.80 183.34"
/>
<path stroke="#7ca3c2" vector-effect="non-scaling-stroke" d="
  M 387.78 224.87
  C 364.63 216.42 340.59 212.58 316.31 217.81
  C 307.97 219.60 296.01 224.04 287.42 225.18
  C 269.25 227.59 257.22 222.41 240.89 212.89
  Q 227.49 205.08 213.72 197.94
  C 204.21 193.00 196.66 194.75 187.58 200.10
  Q 172.30 209.11 157.25 218.50
  C 131.63 234.49 113.45 219.55 87.12 216.26
  C 68.45 213.92 50.42 216.36 32.29 221.41"
/>
<path stroke="#89c9ec" vector-effect="non-scaling-stroke" d="
  M 387.76 244.71
  C 382.47 244.88 378.03 242.67 373.12 241.04
  Q 347.51 232.53 321.15 235.97
  C 311.01 237.30 298.26 241.09 286.94 243.69
  C 265.70 248.58 247.51 238.76 229.70 228.84
  C 214.64 220.45 199.83 217.46 183.64 225.74
  C 168.12 233.67 152.62 247.08 134.22 246.32
  C 119.51 245.70 105.71 238.94 91.44 237.25
  C 71.15 234.86 52.43 238.21 32.19 243.84"
/>
<path stroke="#2787c2" vector-effect="non-scaling-stroke" d="
  M 387.84 259.07
  C 365.51 251.03 342.22 244.55 318.03 248.20
  C 309.50 249.48 298.94 252.71 289.53 255.15
  C 263.54 261.89 244.53 250.01 222.14 239.69
  C 197.75 228.45 178.04 243.18 157.22 253.19
  C 132.55 265.05 115.22 252.98 91.31 249.37
  C 71.43 246.37 50.60 250.61 32.03 256.84"
/>
<path stroke="#1a6198" vector-effect="non-scaling-stroke" d="
  M 387.76 278.26
  Q 371.20 275.04 354.78 271.54
  Q 341.76 268.76 336.07 268.40
  C 323.44 267.60 311.52 270.36 298.81 273.05
  C 282.25 276.56 269.77 277.26 254.44 272.26
  C 237.91 266.87 221.34 253.06 203.49 253.48
  C 189.12 253.82 175.27 263.22 162.03 269.26
  C 149.80 274.85 136.52 278.31 123.07 276.41
  C 113.29 275.02 100.48 270.99 91.58 269.81
  C 71.54 267.15 52.84 272.34 32.14 277.36"
/>
<path stroke="#569bc3" vector-effect="non-scaling-stroke" d="
  M 387.61 303.31
  Q 369.51 297.56 351.25 293.77
  Q 305.49 284.29 262.38 301.51
  Q 254.56 304.64 248.13 307.09"
/>
<path stroke="#1a6198" vector-effect="non-scaling-stroke" d="
  M 248.13 307.09
  Q 231.77 299.69 216.72 292.24
  C 209.05 288.44 202.09 286.75 194.80 289.79
  C 180.91 295.60 165.60 303.72 147.57 309.37"
/>
<path stroke="#569bc3" vector-effect="non-scaling-stroke" d="
  M 147.57 309.37
  Q 140.27 307.88 136.32 306.68
  C 112.54 299.49 90.44 292.10 68.06 293.31
  Q 51.50 294.21 32.50 299.80"
/>
<path stroke="#59aad5" vector-effect="non-scaling-stroke" d="
  M 248.13 307.09
  Q 236.18 311.99 225.13 314.60"
/>
<path stroke="#2787c2" vector-effect="non-scaling-stroke" d="
  M 225.13 314.60
  Q 202.99 300.30 181.53 316.14"
/>
<path stroke="#59aad5" vector-effect="non-scaling-stroke" d="
  M 181.53 316.14
  Q 165.19 314.47 147.57 309.37"
/>
<path stroke="#5fb9e6" vector-effect="non-scaling-stroke" d="
  M 387.73 323.48
  Q 375.51 320.69 363.47 317.85
  C 334.09 310.93 306.78 308.74 276.89 318.31
  Q 261.55 323.21 246.17 328.03
  Q 211.50 338.90 175.40 333.79
  C 152.21 330.51 129.10 324.33 106.48 318.33
  C 81.47 311.70 56.68 313.54 32.22 321.86"
/>
<path stroke="#63c1ed" vector-effect="non-scaling-stroke" d="
  M 181.53 316.14
  Q 203.72 319.14 225.13 314.60"
/>
<path stroke="#2177b4" vector-effect="non-scaling-stroke" d="
  M 387.74 336.86
  C 356.98 328.95 323.85 324.71 292.26 330.59
  Q 285.22 331.90 272.93 335.65
  C 252.86 341.78 236.85 346.64 218.50 348.00
  C 191.52 349.99 165.01 346.38 138.59 339.82
  Q 117.85 334.67 103.94 332.07
  Q 73.55 326.39 42.31 333.22
  Q 37.37 334.30 32.21 335.34"
/>
<path stroke="#185a91" vector-effect="non-scaling-stroke" d="
  M 387.76 351.03
  C 375.77 348.90 365.48 348.39 352.41 349.54
  Q 333.68 351.20 314.89 352.00
  Q 304.65 352.44 298.82 353.42
  C 281.61 356.31 263.56 362.06 248.96 365.72
  Q 248.49 365.84 248.26 366.27
  L 247.94 366.85"
/>
<path stroke="#185a91" vector-effect="non-scaling-stroke" d="
  M 168.26 367.26
  C 164.81 366.62 162.67 367.32 158.74 366.04
  Q 145.06 361.56 120.39 355.24
  Q 110.20 352.63 100.75 352.24
  Q 73.16 351.09 49.26 348.69
  Q 42.02 347.96 32.29 349.01"
/>
<path stroke="#2177b4" vector-effect="non-scaling-stroke" d="
  M 0.86 375.02
  L 0.00 373.93"
/>
<path stroke="#7ca3c2" vector-effect="non-scaling-stroke" d="
  M 360.4435 64.3437
  A 0.43 0.43 0.0 0 0 360.2020 63.7856
  L 324.7589 49.7527
  A 0.43 0.43 0.0 0 0 324.2008 49.9942
  L 311.3165 82.5363
  A 0.43 0.43 0.0 0 0 311.5580 83.0944
  L 347.0011 97.1273
  A 0.43 0.43 0.0 0 0 347.5592 96.8858
  L 360.4435 64.3437"
/>
<path stroke="#7ca3c2" vector-effect="non-scaling-stroke" d="
  M 102.2417 69.5117
  A 0.27 0.27 0.0 0 0 101.9713 69.2422
  L 93.0113 69.2578
  A 0.27 0.27 0.0 0 0 92.7418 69.5283
  L 92.7583 78.9883
  A 0.27 0.27 0.0 0 0 93.0287 79.2578
  L 101.9887 79.2422
  A 0.27 0.27 0.0 0 0 102.2582 78.9717
  L 102.2417 69.5117"
/>
<path stroke="#7ca3c2" vector-effect="non-scaling-stroke" d="
  M 168.2822 78.2130
  A 0.64 0.64 0.0 0 0 167.6615 77.5543
  L 144.1519 76.8566
  A 0.64 0.64 0.0 0 0 143.4931 77.4773
  L 142.7978 100.9070
  A 0.64 0.64 0.0 0 0 143.4185 101.5657
  L 166.9281 102.2634
  A 0.64 0.64 0.0 0 0 167.5869 101.6427
  L 168.2822 78.2130"
/>
<path stroke="#7ca3c2" vector-effect="non-scaling-stroke" d="
  M 263.0361 79.1887
  A 0.62 0.62 0.0 0 0 262.3240 78.6770
  L 248.8238 80.8878
  A 0.62 0.62 0.0 0 0 248.3122 81.5998
  L 250.3839 94.2513
  A 0.62 0.62 0.0 0 0 251.0960 94.7630
  L 264.5962 92.5522
  A 0.62 0.62 0.0 0 0 265.1078 91.8402
  L 263.0361 79.1887"
/>
<path stroke="#2177b4" vector-effect="non-scaling-stroke" d="
  M 26.21 399.03
  Q 26.32 399.55 26.19 400.00"
/>
<path stroke="#2177b4" vector-effect="non-scaling-stroke" d="
  M 391.44 400.00
  Q 391.45 398.86 391.91 399.31"
/>
</g>
<path fill="#298dcd" d="
  M 22.60 0.00
  L 26.62 0.00
  Q 8.49 2.83 1.92 18.96
  Q 0.95 21.33 0.86 26.50
  L 0.00 27.69
  L 0.00 22.89
  Q 4.11 4.64 22.60 0.00
  Z"
/>
<path fill="#183254" d="
  M 26.62 0.00
  L 73.82 0.00
  L 66.17 0.20
  Q 65.87 0.21 65.93 0.51
  Q 65.98 0.76 66.25 0.76
  Q 160.79 0.75 258.29 0.75
  A 0.15 0.15 0.0 0 0 258.44 0.60
  Q 258.44 0.45 258.44 0.31
  A 0.12 0.11 89.7 0 0 258.34 0.20
  L 254.56 0.00
  L 395.06 0.00
  Q 394.80 0.29 394.16 0.26
  Q 393.77 0.25 393.96 0.58
  Q 394.13 0.87 394.32 0.88
  Q 403.52 1.56 409.94 7.31
  Q 417.47 14.05 419.00 25.91
  L 419.00 374.85
  Q 413.22 398.20 391.91 399.31
  L 26.21 399.03
  Q 4.63 396.63 0.86 375.02
  L 0.86 26.50
  Q 0.95 21.33 1.92 18.96
  Q 8.49 2.83 26.62 0.00
  Z
  M 32.20 139.72
  L 32.25 164.69
  L 31.96 192.80
  L 32.29 221.41
  L 32.19 243.84
  L 32.03 256.84
  L 32.14 277.36
  L 32.50 299.80
  L 32.22 321.86
  L 32.21 335.34
  L 32.29 349.01
  L 32.03 366.65
  Q 32.02 367.25 32.63 367.25
  L 168.26 367.26
  Q 208.08 368.26 247.94 366.85
  L 387.01 367.66
  A 1.03 1.02 -0.5 0 0 388.04 366.62
  L 387.76 351.03
  L 387.74 336.86
  L 387.73 323.48
  L 387.61 303.31
  L 387.76 278.26
  L 387.84 259.07
  L 387.76 244.71
  L 387.78 224.87
  L 387.75 192.84
  L 387.75 162.92
  L 387.74 137.12
  L 387.74 32.15
  Q 387.74 31.58 387.17 31.57
  C 375.10 31.27 363.12 31.35 351.25 31.33
  Q 192.04 31.06 32.80 31.46
  Q 32.27 31.46 32.27 31.99
  L 32.20 139.72
  Z"
/>
<path fill="#175286" d="
  M 73.82 0.00
  L 254.56 0.00
  L 258.34 0.20
  A 0.12 0.11 89.7 0 1 258.44 0.31
  Q 258.44 0.45 258.44 0.60
  A 0.15 0.15 0.0 0 1 258.29 0.75
  Q 160.79 0.75 66.25 0.76
  Q 65.98 0.76 65.93 0.51
  Q 65.87 0.21 66.17 0.20
  L 73.82 0.00
  Z"
/>
<path fill="#298dcd" d="
  M 395.06 0.00
  L 396.70 0.00
  Q 414.85 3.78 419.00 21.24
  L 419.00 25.91
  Q 417.47 14.05 409.94 7.31
  Q 403.52 1.56 394.32 0.88
  Q 394.13 0.87 393.96 0.58
  Q 393.77 0.25 394.16 0.26
  Q 394.80 0.29 395.06 0.00
  Z"
/>
<path fill="#18619b" d="
  M 0.86 26.50
  L 0.86 375.02
  L 0.00 373.93
  L 0.00 27.69
  L 0.86 26.50
  Z"
/>
<path fill="#e1f3fe" d="
  M 387.74 137.12
  Q 367.66 140.83 347.51 141.76
  L 347.06 131.22
  Q 347.04 130.67 346.48 130.68
  L 331.02 131.05
  Q 330.48 131.06 330.50 131.60
  L 330.81 142.19
  Q 303.47 143.82 277.03 137.58
  Q 265.92 134.95 241.67 129.10
  Q 209.29 121.28 177.41 129.55
  C 162.41 133.44 146.43 138.45 132.12 140.83
  Q 113.33 143.97 94.26 143.28
  L 95.56 125.49
  A 0.88 0.88 0.0 0 0 94.75 124.55
  L 72.51 122.92
  Q 71.39 122.84 71.31 123.95
  L 69.95 143.78
  Q 50.90 143.57 32.20 139.72
  L 32.27 31.99
  Q 32.27 31.46 32.80 31.46
  Q 192.04 31.06 351.25 31.33
  C 363.12 31.35 375.10 31.27 387.17 31.57
  Q 387.74 31.58 387.74 32.15
  L 387.74 137.12
  Z
  M 360.4435 64.3437
  A 0.43 0.43 0.0 0 0 360.2020 63.7856
  L 324.7589 49.7527
  A 0.43 0.43 0.0 0 0 324.2008 49.9942
  L 311.3165 82.5363
  A 0.43 0.43 0.0 0 0 311.5580 83.0944
  L 347.0011 97.1273
  A 0.43 0.43 0.0 0 0 347.5592 96.8858
  L 360.4435 64.3437
  Z
  M 102.2417 69.5117
  A 0.27 0.27 0.0 0 0 101.9713 69.2422
  L 93.0113 69.2578
  A 0.27 0.27 0.0 0 0 92.7418 69.5283
  L 92.7583 78.9883
  A 0.27 0.27 0.0 0 0 93.0287 79.2578
  L 101.9887 79.2422
  A 0.27 0.27 0.0 0 0 102.2582 78.9717
  L 102.2417 69.5117
  Z
  M 168.2822 78.2130
  A 0.64 0.64 0.0 0 0 167.6615 77.5543
  L 144.1519 76.8566
  A 0.64 0.64 0.0 0 0 143.4931 77.4773
  L 142.7978 100.9070
  A 0.64 0.64 0.0 0 0 143.4185 101.5657
  L 166.9281 102.2634
  A 0.64 0.64 0.0 0 0 167.5869 101.6427
  L 168.2822 78.2130
  Z
  M 263.0361 79.1887
  A 0.62 0.62 0.0 0 0 262.3240 78.6770
  L 248.8238 80.8878
  A 0.62 0.62 0.0 0 0 248.3122 81.5998
  L 250.3839 94.2513
  A 0.62 0.62 0.0 0 0 251.0960 94.7630
  L 264.5962 92.5522
  A 0.62 0.62 0.0 0 0 265.1078 91.8402
  L 263.0361 79.1887
  Z"
/>
<rect fill="#175286" x="-19.49" y="-17.93" transform="translate(335.88,73.44) rotate(21.6)" width="38.98" height="35.86" rx="0.43"/>
<rect fill="#175286" x="-4.75" y="-5.00" transform="translate(97.50,74.25) rotate(-0.1)" width="9.50" height="10.00" rx="0.27"/>
<rect fill="#175286" x="-12.40" y="-12.36" transform="translate(155.54,89.56) rotate(1.7)" width="24.80" height="24.72" rx="0.64"/>
<rect fill="#175286" x="-7.46" y="-7.03" transform="translate(256.71,86.72) rotate(-9.3)" width="14.92" height="14.06" rx="0.62"/>
<path fill="#175286" d="
  M 94.26 143.28
  L 93.66 147.01
  A 0.64 0.63 -83.6 0 1 92.99 147.55
  L 70.83 146.03
  Q 70.39 146.00 70.19 145.61
  Q 69.82 144.90 69.95 143.78
  L 71.31 123.95
  Q 71.39 122.84 72.51 122.92
  L 94.75 124.55
  A 0.88 0.88 0.0 0 1 95.56 125.49
  L 94.26 143.28
  Z"
/>
<path fill="#95e4ff" d="
  M 330.81 142.19
  L 331.35 145.74
  A 0.58 0.57 -4.5 0 0 331.93 146.23
  L 346.84 145.92
  Q 347.46 145.91 347.46 145.29
  L 347.51 141.76
  Q 367.66 140.83 387.74 137.12
  L 387.75 162.92
  Q 330.23 176.03 273.01 161.97
  Q 255.05 157.56 237.17 152.81
  C 218.13 147.76 203.12 146.24 184.51 151.79
  Q 161.60 158.62 151.50 161.29
  Q 92.44 176.91 32.25 164.69
  L 32.20 139.72
  Q 50.90 143.57 69.95 143.78
  Q 69.82 144.90 70.19 145.61
  Q 70.39 146.00 70.83 146.03
  L 92.99 147.55
  A 0.64 0.63 -83.6 0 0 93.66 147.01
  L 94.26 143.28
  Q 113.33 143.97 132.12 140.83
  C 146.43 138.45 162.41 133.44 177.41 129.55
  Q 209.29 121.28 241.67 129.10
  Q 265.92 134.95 277.03 137.58
  Q 303.47 143.82 330.81 142.19
  Z"
/>
<path fill="#175286" d="
  M 347.51 141.76
  L 347.46 145.29
  Q 347.46 145.91 346.84 145.92
  L 331.93 146.23
  A 0.58 0.57 -4.5 0 1 331.35 145.74
  L 330.81 142.19
  L 330.50 131.60
  Q 330.48 131.06 331.02 131.05
  L 346.48 130.68
  Q 347.04 130.67 347.06 131.22
  L 347.51 141.76
  Z"
/>
<path fill="#319eda" d="
  M 387.75 162.92
  L 387.75 192.84
  Q 375.57 193.96 355.81 195.06
  Q 298.83 198.26 244.71 183.33
  Q 247.24 178.74 243.80 175.20
  C 236.91 168.10 212.66 158.01 202.99 159.94
  C 193.43 161.85 170.60 168.45 167.34 177.56
  C 166.72 179.30 167.16 181.35 166.80 183.34
  C 123.16 196.89 77.26 198.25 31.96 192.80
  L 32.25 164.69
  Q 92.44 176.91 151.50 161.29
  Q 161.60 158.62 184.51 151.79
  C 203.12 146.24 218.13 147.76 237.17 152.81
  Q 255.05 157.56 273.01 161.97
  Q 330.23 176.03 387.75 162.92
  Z"
/>
<path fill="#298dcd" d="
  M 244.71 183.33
  Q 227.79 178.06 211.21 171.73
  C 207.61 170.35 202.22 170.82 198.16 172.35
  Q 182.59 178.21 166.80 183.34
  C 167.16 181.35 166.72 179.30 167.34 177.56
  C 170.60 168.45 193.43 161.85 202.99 159.94
  C 212.66 158.01 236.91 168.10 243.80 175.20
  Q 247.24 178.74 244.71 183.33
  Z"
/>
<path fill="#175286" d="
  M 244.71 183.33
  Q 298.83 198.26 355.81 195.06
  Q 375.57 193.96 387.75 192.84
  L 387.78 224.87
  C 364.63 216.42 340.59 212.58 316.31 217.81
  C 307.97 219.60 296.01 224.04 287.42 225.18
  C 269.25 227.59 257.22 222.41 240.89 212.89
  Q 227.49 205.08 213.72 197.94
  C 204.21 193.00 196.66 194.75 187.58 200.10
  Q 172.30 209.11 157.25 218.50
  C 131.63 234.49 113.45 219.55 87.12 216.26
  C 68.45 213.92 50.42 216.36 32.29 221.41
  L 31.96 192.80
  C 77.26 198.25 123.16 196.89 166.80 183.34
  Q 182.59 178.21 198.16 172.35
  C 202.22 170.82 207.61 170.35 211.21 171.73
  Q 227.79 178.06 244.71 183.33
  Z"
/>
<path fill="#e1f3fe" d="
  M 387.78 224.87
  L 387.76 244.71
  C 382.47 244.88 378.03 242.67 373.12 241.04
  Q 347.51 232.53 321.15 235.97
  C 311.01 237.30 298.26 241.09 286.94 243.69
  C 265.70 248.58 247.51 238.76 229.70 228.84
  C 214.64 220.45 199.83 217.46 183.64 225.74
  C 168.12 233.67 152.62 247.08 134.22 246.32
  C 119.51 245.70 105.71 238.94 91.44 237.25
  C 71.15 234.86 52.43 238.21 32.19 243.84
  L 32.29 221.41
  C 50.42 216.36 68.45 213.92 87.12 216.26
  C 113.45 219.55 131.63 234.49 157.25 218.50
  Q 172.30 209.11 187.58 200.10
  C 196.66 194.75 204.21 193.00 213.72 197.94
  Q 227.49 205.08 240.89 212.89
  C 257.22 222.41 269.25 227.59 287.42 225.18
  C 296.01 224.04 307.97 219.60 316.31 217.81
  C 340.59 212.58 364.63 216.42 387.78 224.87
  Z"
/>
<path fill="#319eda" d="
  M 387.76 244.71
  L 387.84 259.07
  C 365.51 251.03 342.22 244.55 318.03 248.20
  C 309.50 249.48 298.94 252.71 289.53 255.15
  C 263.54 261.89 244.53 250.01 222.14 239.69
  C 197.75 228.45 178.04 243.18 157.22 253.19
  C 132.55 265.05 115.22 252.98 91.31 249.37
  C 71.43 246.37 50.60 250.61 32.03 256.84
  L 32.19 243.84
  C 52.43 238.21 71.15 234.86 91.44 237.25
  C 105.71 238.94 119.51 245.70 134.22 246.32
  C 152.62 247.08 168.12 233.67 183.64 225.74
  C 199.83 217.46 214.64 220.45 229.70 228.84
  C 247.51 238.76 265.70 248.58 286.94 243.69
  C 298.26 241.09 311.01 237.30 321.15 235.97
  Q 347.51 232.53 373.12 241.04
  C 378.03 242.67 382.47 244.88 387.76 244.71
  Z"
/>
<path fill="#1c6faa" d="
  M 387.84 259.07
  L 387.76 278.26
  Q 371.20 275.04 354.78 271.54
  Q 341.76 268.76 336.07 268.40
  C 323.44 267.60 311.52 270.36 298.81 273.05
  C 282.25 276.56 269.77 277.26 254.44 272.26
  C 237.91 266.87 221.34 253.06 203.49 253.48
  C 189.12 253.82 175.27 263.22 162.03 269.26
  C 149.80 274.85 136.52 278.31 123.07 276.41
  C 113.29 275.02 100.48 270.99 91.58 269.81
  C 71.54 267.15 52.84 272.34 32.14 277.36
  L 32.03 256.84
  C 50.60 250.61 71.43 246.37 91.31 249.37
  C 115.22 252.98 132.55 265.05 157.22 253.19
  C 178.04 243.18 197.75 228.45 222.14 239.69
  C 244.53 250.01 263.54 261.89 289.53 255.15
  C 298.94 252.71 309.50 249.48 318.03 248.20
  C 342.22 244.55 365.51 251.03 387.84 259.07
  Z"
/>
<path fill="#175286" d="
  M 387.76 278.26
  L 387.61 303.31
  Q 369.51 297.56 351.25 293.77
  Q 305.49 284.29 262.38 301.51
  Q 254.56 304.64 248.13 307.09
  Q 231.77 299.69 216.72 292.24
  C 209.05 288.44 202.09 286.75 194.80 289.79
  C 180.91 295.60 165.60 303.72 147.57 309.37
  Q 140.27 307.88 136.32 306.68
  C 112.54 299.49 90.44 292.10 68.06 293.31
  Q 51.50 294.21 32.50 299.80
  L 32.14 277.36
  C 52.84 272.34 71.54 267.15 91.58 269.81
  C 100.48 270.99 113.29 275.02 123.07 276.41
  C 136.52 278.31 149.80 274.85 162.03 269.26
  C 175.27 263.22 189.12 253.82 203.49 253.48
  C 221.34 253.06 237.91 266.87 254.44 272.26
  C 269.77 277.26 282.25 276.56 298.81 273.05
  C 311.52 270.36 323.44 267.60 336.07 268.40
  Q 341.76 268.76 354.78 271.54
  Q 371.20 275.04 387.76 278.26
  Z"
/>
<path fill="#1c6faa" d="
  M 248.13 307.09
  Q 236.18 311.99 225.13 314.60
  Q 202.99 300.30 181.53 316.14
  Q 165.19 314.47 147.57 309.37
  C 165.60 303.72 180.91 295.60 194.80 289.79
  C 202.09 286.75 209.05 288.44 216.72 292.24
  Q 231.77 299.69 248.13 307.09
  Z"
/>
<path fill="#95e4ff" d="
  M 387.61 303.31
  L 387.73 323.48
  Q 375.51 320.69 363.47 317.85
  C 334.09 310.93 306.78 308.74 276.89 318.31
  Q 261.55 323.21 246.17 328.03
  Q 211.50 338.90 175.40 333.79
  C 152.21 330.51 129.10 324.33 106.48 318.33
  C 81.47 311.70 56.68 313.54 32.22 321.86
  L 32.50 299.80
  Q 51.50 294.21 68.06 293.31
  C 90.44 292.10 112.54 299.49 136.32 306.68
  Q 140.27 307.88 147.57 309.37
  Q 165.19 314.47 181.53 316.14
  Q 203.72 319.14 225.13 314.60
  Q 236.18 311.99 248.13 307.09
  Q 254.56 304.64 262.38 301.51
  Q 305.49 284.29 351.25 293.77
  Q 369.51 297.56 387.61 303.31
  Z"
/>
<path fill="#319eda" d="
  M 225.13 314.60
  Q 203.72 319.14 181.53 316.14
  Q 202.99 300.30 225.13 314.60
  Z"
/>
<path fill="#298dcd" d="
  M 387.73 323.48
  L 387.74 336.86
  C 356.98 328.95 323.85 324.71 292.26 330.59
  Q 285.22 331.90 272.93 335.65
  C 252.86 341.78 236.85 346.64 218.50 348.00
  C 191.52 349.99 165.01 346.38 138.59 339.82
  Q 117.85 334.67 103.94 332.07
  Q 73.55 326.39 42.31 333.22
  Q 37.37 334.30 32.21 335.34
  L 32.22 321.86
  C 56.68 313.54 81.47 311.70 106.48 318.33
  C 129.10 324.33 152.21 330.51 175.40 333.79
  Q 211.50 338.90 246.17 328.03
  Q 261.55 323.21 276.89 318.31
  C 306.78 308.74 334.09 310.93 363.47 317.85
  Q 375.51 320.69 387.73 323.48
  Z"
/>
<path fill="#18619b" d="
  M 387.74 336.86
  L 387.76 351.03
  C 375.77 348.90 365.48 348.39 352.41 349.54
  Q 333.68 351.20 314.89 352.00
  Q 304.65 352.44 298.82 353.42
  C 281.61 356.31 263.56 362.06 248.96 365.72
  Q 248.49 365.84 248.26 366.27
  L 247.94 366.85
  Q 208.08 368.26 168.26 367.26
  C 164.81 366.62 162.67 367.32 158.74 366.04
  Q 145.06 361.56 120.39 355.24
  Q 110.20 352.63 100.75 352.24
  Q 73.16 351.09 49.26 348.69
  Q 42.02 347.96 32.29 349.01
  L 32.21 335.34
  Q 37.37 334.30 42.31 333.22
  Q 73.55 326.39 103.94 332.07
  Q 117.85 334.67 138.59 339.82
  C 165.01 346.38 191.52 349.99 218.50 348.00
  C 236.85 346.64 252.86 341.78 272.93 335.65
  Q 285.22 331.90 292.26 330.59
  C 323.85 324.71 356.98 328.95 387.74 336.86
  Z"
/>
<path fill="#175286" d="
  M 168.26 367.26
  L 32.63 367.25
  Q 32.02 367.25 32.03 366.65
  L 32.29 349.01
  Q 42.02 347.96 49.26 348.69
  Q 73.16 351.09 100.75 352.24
  Q 110.20 352.63 120.39 355.24
  Q 145.06 361.56 158.74 366.04
  C 162.67 367.32 164.81 366.62 168.26 367.26
  Z"
/>
<path fill="#175286" d="
  M 387.76 351.03
  L 388.04 366.62
  A 1.03 1.02 -0.5 0 1 387.01 367.66
  L 247.94 366.85
  L 248.26 366.27
  Q 248.49 365.84 248.96 365.72
  C 263.56 362.06 281.61 356.31 298.82 353.42
  Q 304.65 352.44 314.89 352.00
  Q 333.68 351.20 352.41 349.54
  C 365.48 348.39 375.77 348.90 387.76 351.03
  Z"
/>
<path fill="#298dcd" d="
  M 0.00 373.93
  L 0.86 375.02
  Q 4.63 396.63 26.21 399.03
  Q 26.32 399.55 26.19 400.00
  L 23.74 400.00
  Q 4.19 395.57 0.00 376.52
  L 0.00 373.93
  Z"
/>
<path fill="#298dcd" d="
  M 419.00 374.85
  L 419.00 377.93
  Q 413.83 396.59 395.83 400.00
  L 391.44 400.00
  Q 391.45 398.86 391.91 399.31
  Q 413.22 398.20 419.00 374.85
  Z"
/>
<path fill="#18619b" d="
  M 26.21 399.03
  L 391.91 399.31
  Q 391.45 398.86 391.44 400.00
  L 26.19 400.00
  Q 26.32 399.55 26.21 399.03
  Z"
/>
</svg>
